<?xml version="1.0" standalone="no"?>
<!DOCTYPE svg PUBLIC "-//W3C//DTD SVG 20010904//EN"
 "http://www.w3.org/TR/2001/REC-SVG-20010904/DTD/svg10.dtd">
<svg version="1.0" xmlns="http://www.w3.org/2000/svg"
 width="512.000000pt" height="512.000000pt" viewBox="0 0 512.000000 512.000000"
 preserveAspectRatio="xMidYMid meet">

<g transform="translate(0.000000,512.000000) scale(0.100000,-0.100000)"
fill="#000000" stroke="none">
<path d="M2885 5110 c-660 -76 -1221 -441 -1554 -1012 -150 -258 -238 -551
-262 -873 -32 -435 96 -905 345 -1270 l75 -110 -96 -96 -95 -96 -64 -6 c-43
-3 -77 -13 -106 -30 -24 -14 -278 -261 -565 -549 -555 -556 -562 -565 -563
-659 0 -74 37 -132 163 -257 122 -120 173 -152 247 -152 93 0 102 9 658 563
288 287 535 541 549 565 17 29 27 63 30 106 l6 64 96 95 96 96 119 -79 c266
-179 599 -301 913 -335 58 -6 64 -5 88 19 32 32 33 75 3 103 -17 16 -47 24
-118 33 -799 101 -1454 721 -1604 1517 -132 704 151 1424 729 1853 716 530
1709 484 2372 -110 613 -550 796 -1459 443 -2198 -284 -595 -837 -990 -1494
-1067 -61 -7 -106 -37 -106 -70 0 -30 29 -73 54 -79 33 -8 215 18 335 48 528
134 974 465 1256 931 179 296 285 684 285 1044 0 228 -56 520 -140 732 -268
675 -850 1144 -1570 1264 -114 19 -413 27 -525 15z m-1237 -3607 l-83 -83 -72
72 -73 73 82 82 83 83 72 -72 73 -73 -82 -82z m-266 -121 c84 -84 118 -125
118 -141 0 -17 -29 -53 -92 -118 l-93 -93 -143 143 -143 143 94 92 c65 63 102
92 118 92 16 0 58 -35 141 -118z m-559 -844 c-333 -333 -392 -388 -417 -388
-24 0 -50 21 -143 113 -92 93 -113 119 -113 143 0 25 55 84 387 416 l388 388
142 -142 143 -143 -387 -387z"/>
<path d="M2895 4744 c-471 -70 -861 -297 -1136 -663 -463 -617 -429 -1497 83
-2081 569 -650 1553 -756 2239 -241 373 281 609 693 663 1162 9 70 -16 109
-68 109 -58 0 -66 -14 -91 -166 -53 -316 -182 -581 -391 -803 -561 -595 -1481
-641 -2099 -103 -359 312 -554 804 -505 1278 68 663 538 1190 1190 1336 91 20
132 23 310 23 161 0 223 -4 290 -18 309 -67 565 -204 779 -417 216 -215 349
-465 416 -781 26 -125 38 -142 94 -137 23 2 40 12 54 30 l21 28 -23 112 c-129
657 -633 1166 -1296 1308 -79 17 -142 22 -300 25 -110 2 -213 1 -230 -1z"/>
<path d="M2420 4283 c-22 -27 -22 -34 -17 -198 6 -180 24 -283 70 -405 80
-214 222 -407 393 -535 l74 -56 -62 -46 c-182 -133 -340 -350 -413 -567 -44
-130 -56 -205 -62 -384 -6 -171 -5 -173 17 -197 32 -35 82 -34 109 1 16 21 21
41 21 90 l0 64 543 -2 542 -3 5 -73 c5 -80 20 -102 68 -102 70 0 87 47 77 219
-11 216 -42 353 -114 506 -78 167 -222 345 -361 446 -33 24 -60 46 -60 49 0 3
17 16 37 30 64 42 203 181 262 260 148 198 222 419 236 701 10 183 -6 229 -77
229 -48 0 -63 -22 -68 -102 l-5 -73 -542 -3 -543 -2 0 65 c0 57 -3 69 -25 90
-33 34 -77 33 -105 -2z m1210 -315 c0 -12 -8 -52 -25 -125 l-5 -23 -509 0
-508 0 -12 57 c-6 31 -11 67 -11 80 l0 23 535 0 c421 0 535 -3 535 -12z m-90
-310 c0 -7 -19 -45 -42 -85 l-42 -73 -365 2 -366 3 -42 75 c-24 41 -43 78 -43
82 0 5 203 8 450 8 343 0 450 -3 450 -12z m-263 -353 c-55 -51 -165 -125 -186
-125 -18 0 -134 79 -191 129 l-45 40 235 0 235 0 -48 -44z m-107 -349 c36 -24
85 -62 110 -84 l45 -41 -235 0 -235 -1 40 35 c53 46 183 135 198 135 7 0 41
-20 77 -44z m328 -349 c23 -40 42 -78 42 -85 0 -9 -107 -12 -450 -12 -247 0
-450 2 -450 5 0 10 42 88 68 127 l25 38 362 0 361 0 42 -73z m106 -264 c4 -16
26 -131 26 -140 0 -2 -241 -3 -535 -3 l-535 0 0 23 c0 13 5 49 11 80 l12 57
508 0 c475 0 508 -1 513 -17z"/>
</g>
</svg>
