<?xml version="1.0" standalone="no"?>
<!DOCTYPE svg PUBLIC "-//W3C//DTD SVG 20010904//EN"
 "http://www.w3.org/TR/2001/REC-SVG-20010904/DTD/svg10.dtd">
<svg version="1.0" xmlns="http://www.w3.org/2000/svg"
 width="225.000000pt" height="225.000000pt" viewBox="0 0 225.000000 225.000000"
 preserveAspectRatio="xMidYMid meet">

<g transform="translate(0.000000,225.000000) scale(0.100000,-0.100000)"
fill="#000000" stroke="none">
<path d="M474 2231 c-11 -5 -33 -23 -47 -41 -31 -36 -36 -94 -12 -139 16 -32
69 -61 113 -61 42 0 94 39 111 84 28 75 -22 153 -105 162 -21 2 -48 0 -60 -5z"/>
<path d="M1142 2223 c-85 -42 -83 -176 4 -218 52 -25 101 -15 142 30 57 61 39
150 -38 190 -37 19 -67 19 -108 -2z"/>
<path d="M333 1929 c-23 -11 -51 -35 -62 -52 -19 -31 -131 -399 -131 -431 0
-26 47 -51 74 -38 18 8 29 32 55 123 74 262 69 249 97 249 19 0 24 -4 20 -17
-7 -24 -136 -563 -136 -569 0 -2 27 -4 60 -4 l60 0 0 -220 c0 -207 1 -221 20
-240 20 -20 56 -26 76 -12 29 19 34 56 34 261 l0 211 25 0 25 0 0 -220 c0
-207 1 -221 20 -240 25 -25 62 -26 83 -2 15 16 17 48 17 240 l0 222 60 0 c41
0 60 4 60 13 0 6 -29 133 -65 281 -36 148 -65 273 -65 277 0 5 10 9 23 9 21 0
27 -13 71 -170 53 -185 68 -210 114 -194 25 9 31 23 77 184 45 153 54 175 73
178 l21 3 3 -511 3 -512 24 -19 c32 -26 67 -24 96 6 l25 24 0 296 0 296 28 -3
27 -3 5 -303 c5 -286 6 -304 24 -318 29 -21 64 -17 91 11 l25 24 0 506 0 505
25 0 c26 0 30 -10 90 -235 15 -55 32 -106 37 -113 6 -7 44 -22 84 -34 l73 -21
3 -319 c3 -303 4 -320 22 -334 27 -19 42 -18 66 6 18 18 20 33 20 180 0 153 1
160 20 160 19 0 20 -7 20 -164 0 -136 3 -167 16 -180 21 -21 47 -20 67 2 15
16 17 53 17 315 0 290 0 297 20 297 19 0 20 -7 20 -110 0 -102 1 -110 22 -121
18 -10 24 -8 40 11 15 18 18 40 18 124 0 123 -11 167 -51 200 -30 25 -35 26
-182 27 -228 2 -201 -18 -262 195 -28 100 -60 196 -71 215 -11 20 -38 43 -64
57 -41 20 -57 22 -225 22 -168 0 -184 -2 -225 -22 -55 -28 -76 -64 -111 -187
-15 -53 -29 -89 -32 -81 -3 8 -18 56 -32 105 -50 167 -78 185 -292 185 -130 0
-153 -3 -190 -21z"/>
<path d="M1759 1651 c-17 -18 -29 -40 -29 -56 0 -37 50 -85 89 -85 46 0 85 39
85 85 0 78 -89 112 -145 56z"/>
<path d="M62 533 l-62 -14 0 -40 c0 -42 2 -44 31 -29 10 6 39 14 64 19 l45 8
0 -178 0 -179 35 0 35 0 0 181 0 181 33 -7 c17 -4 49 -14 70 -22 l37 -15 0
-135 0 -135 33 21 c32 20 32 21 35 111 1 49 6 90 10 90 4 0 48 -31 97 -68 50
-38 138 -105 197 -150 183 -139 316 -187 455 -164 119 20 378 167 351 200 -28
33 -43 31 -109 -14 l-64 -45 -3 99 c-3 107 2 98 -64 130 -5 2 -8 -58 -8 -133
l0 -136 -32 -13 c-18 -7 -48 -16 -65 -19 l-33 -7 0 180 0 180 -35 0 -35 0 0
-181 0 -181 -32 7 c-18 4 -48 13 -68 20 l-35 12 -5 136 -5 137 -32 -20 -32
-19 -3 -97 -3 -96 -100 76 c-55 41 -143 108 -196 149 -117 89 -215 141 -300
162 -78 18 -125 18 -207 -2z"/>
<path d="M1013 536 c-29 -7 -81 -27 -116 -44 -70 -35 -207 -128 -207 -141 0
-5 11 -16 25 -25 25 -17 27 -16 90 29 36 25 100 63 142 83 72 34 85 37 169 37
86 0 94 -2 175 -42 46 -23 125 -73 174 -111 50 -37 138 -105 197 -150 181
-137 317 -187 450 -165 103 18 118 27 118 69 0 33 -2 36 -22 29 -102 -32 -128
-36 -188 -31 -82 7 -195 60 -305 145 -323 247 -354 268 -451 302 -74 26 -183
33 -251 15z"/>
<path d="M1948 536 c-26 -8 -75 -27 -110 -44 -70 -33 -208 -127 -208 -142 0
-5 11 -17 25 -26 23 -15 26 -14 89 31 l65 46 3 -97 3 -98 33 -19 32 -19 0 135
0 135 38 15 c20 8 52 18 70 22 l32 7 0 -181 0 -181 35 0 35 0 0 180 0 180 33
-7 c17 -3 47 -12 66 -19 44 -18 43 -19 39 23 -3 32 -7 38 -43 50 -58 21 -181
25 -237 9z"/>
<path d="M459 181 c-121 -82 -184 -105 -284 -105 -61 0 -92 5 -128 22 l-48 21
3 -41 c3 -38 6 -42 43 -56 24 -9 77 -15 130 -15 75 -1 101 4 160 26 68 27 265
150 265 166 0 8 -44 42 -52 41 -2 -1 -42 -27 -89 -59z"/>
</g>
</svg>
