<?xml version="1.0" standalone="no"?>
<!DOCTYPE svg PUBLIC "-//W3C//DTD SVG 20010904//EN"
 "http://www.w3.org/TR/2001/REC-SVG-20010904/DTD/svg10.dtd">
<svg version="1.0" xmlns="http://www.w3.org/2000/svg"
 width="512.000000pt" height="512.000000pt" viewBox="0 0 512.000000 512.000000"
 preserveAspectRatio="xMidYMid meet">

<g transform="translate(0.000000,512.000000) scale(0.100000,-0.100000)"
fill="#000000" stroke="none">
<path d="M731 5104 c-165 -44 -289 -174 -327 -341 -13 -60 -15 -132 -12 -480
5 -458 8 -483 84 -636 54 -111 114 -183 308 -377 l176 -174 -194 -196 c-199
-201 -260 -279 -310 -397 -63 -149 -60 -99 -63 -1133 -3 -834 -2 -953 12
-1016 65 -295 399 -443 660 -294 61 35 144 120 173 176 51 100 52 114 52 631
l0 484 -25 24 c-29 30 -64 32 -96 6 l-24 -19 -5 -499 c-5 -493 -5 -498 -28
-540 -35 -66 -79 -110 -140 -140 -48 -24 -69 -28 -132 -27 -47 1 -89 7 -114
18 -57 25 -131 100 -157 159 l-24 52 0 950 c0 878 1 955 18 1012 47 167 87
222 354 494 184 186 223 231 223 254 0 23 -39 68 -223 254 -267 272 -307 327
-354 494 -16 55 -18 111 -18 472 0 379 1 414 19 459 24 63 86 131 151 164 70
36 179 38 249 3 63 -31 116 -84 147 -147 l24 -49 5 -565 5 -565 27 -50 c102
-191 339 -228 483 -74 84 90 79 53 85 684 5 558 5 560 28 610 29 63 83 119
147 153 69 35 178 37 246 4 60 -29 114 -83 147 -147 l27 -50 0 -430 c0 -484 1
-477 -78 -630 -37 -71 -67 -106 -279 -321 -199 -202 -238 -246 -238 -270 0
-24 58 -87 393 -421 366 -366 395 -393 427 -393 32 0 61 27 427 393 337 336
393 396 393 421 0 25 -37 66 -233 265 -250 253 -285 299 -334 436 l-28 80 0
435 0 435 24 49 c31 63 84 116 147 147 71 35 179 33 249 -3 64 -34 118 -90
147 -153 23 -50 23 -52 28 -610 6 -631 1 -594 85 -684 144 -154 381 -117 483
74 l27 50 5 565 5 565 24 49 c54 109 151 171 266 171 90 -1 159 -30 218 -94
82 -87 82 -90 82 -551 0 -457 -1 -466 -76 -619 -38 -76 -60 -103 -278 -328
-212 -220 -236 -248 -236 -278 0 -30 24 -58 236 -278 218 -225 240 -252 278
-328 80 -165 76 -98 76 -1154 0 -1065 5 -993 -82 -1086 -59 -64 -128 -93 -218
-94 -117 0 -208 57 -267 168 l-23 42 -5 1105 -5 1105 -24 45 c-70 135 -206
200 -342 166 -33 -9 -79 -29 -102 -45 -67 -46 -459 -450 -507 -521 -47 -70
-89 -162 -117 -256 -15 -53 -18 -136 -23 -824 l-5 -765 -24 -49 c-31 -63 -84
-116 -147 -147 -69 -33 -179 -33 -248 0 -63 31 -122 90 -150 150 -21 45 -21
55 -26 811 -5 688 -8 771 -23 824 -28 94 -70 186 -117 256 -48 71 -440 475
-507 521 -23 16 -69 36 -102 45 -136 34 -272 -31 -342 -166 l-24 -45 -3 -486
c-3 -481 -3 -485 18 -512 28 -35 77 -37 108 -4 22 23 22 25 22 483 0 431 2
462 20 501 25 57 69 83 140 83 l55 0 245 -247 c262 -265 283 -291 331 -438
l24 -70 5 -765 c4 -508 9 -775 17 -795 29 -81 62 -135 118 -190 172 -173 440
-178 621 -13 59 54 116 156 133 236 7 36 11 280 11 758 0 793 0 793 72 944 38
81 51 96 287 333 l246 247 55 0 c71 0 115 -26 140 -83 19 -41 20 -78 20 -1108
0 -950 2 -1071 16 -1120 23 -78 50 -125 101 -180 209 -224 563 -187 717 75 68
115 67 93 64 1146 l-3 945 -23 79 c-28 97 -86 213 -145 291 -25 33 -125 139
-221 235 l-176 174 194 196 c208 211 238 249 296 373 72 155 73 165 77 620 4
348 2 420 -11 480 -38 170 -162 298 -331 342 -207 53 -416 -50 -513 -252 l-37
-78 -5 -565 -5 -565 -23 -33 c-65 -91 -205 -81 -254 18 -16 32 -18 80 -18 555
0 567 -3 597 -58 699 -35 65 -114 144 -178 178 -234 126 -505 34 -622 -209
l-37 -78 0 -455 c0 -506 1 -511 69 -657 56 -118 105 -179 300 -373 102 -102
186 -189 186 -195 0 -6 -142 -152 -315 -325 l-315 -315 -315 315 c-173 173
-315 319 -315 325 0 6 81 91 181 190 196 195 250 262 303 376 69 146 70 149
74 619 3 307 0 440 -8 480 -45 204 -233 359 -435 360 -158 0 -322 -98 -397
-236 -55 -102 -58 -132 -58 -699 0 -475 -2 -523 -18 -555 -49 -99 -189 -109
-254 -18 l-23 33 -5 560 c-4 359 -10 571 -16 590 -85 238 -316 370 -543 309z"/>
</g>
</svg>
